# xmcd
#
# Track frame offsets: 
#        300
#        15971
#        30406
#        47792
#        69244
#        92313
#        119580
#        140365
#        156938
#        177503
#        191976
#        217621
#        236784
#        253359
#
# Disc length: 3615 seconds
#
# Revision: 2
# Processed by: cddbd v1.5.2PL0 Copyright (c) Steve Scherf et al.
# Submitted via: ExactAudioCopy v0.95b4
#
DISCID=be0e1b0e
DTITLE=Various Artist - Chesky Records - Women of Song
DYEAR=1997
DGENRE=Blues
TTITLE0=Ana Caram - Samba de Verao
TTITLE1=Christy Baron - Get to Get You Into My life
TTITLE2=Sara K. - If I Could Sing Your Blues
TTITLE3=Badi Assad - Num Pagode Em Planaltina
TTITLE4=Christy Baron - Round Midnight
TTITLE5=Sara K. - Brick House
TTITLE6=Ana Caram - Sonhando
TTITLE7=Rebecca Pidgeon - Spanish Harlem
TTITLE8=Sara K. - What You Don't Know
TTITLE9=Badi Assad - Batucada
TTITLE10=Chisty Baron - Columbus
TTITLE11=Ana Caram - A Voz De Morro
TTITLE12=Rebecca Pidgion - The Word Around Town
TTITLE13=Badi Assad - Quase Um Funk P'ra Badi
EXTD=Badi Assad, Ana Caram, Sara K., Christy Baron, Rebecca Pidgeon
EXTT0=
EXTT1=
EXTT2=
EXTT3=
EXTT4=
EXTT5=
EXTT6=
EXTT7=
EXTT8=
EXTT9=
EXTT10=
EXTT11=
EXTT12=
EXTT13=
PLAYORDER=
